<svg width="24" height="24" viewBox="0 0 24 24" fill="none" xmlns="http://www.w3.org/2000/svg">
<path d="M12 3C10.9391 3 9.92172 3.42143 9.17157 4.17157C8.42143 4.92172 8 5.93913 8 7C8 8.06087 8.42143 9.07828 9.17157 9.82843C9.92172 10.5786 10.9391 11 12 11C13.0609 11 14.0783 10.5786 14.8284 9.82843C15.5786 9.07828 16 8.06087 16 7C16 5.93913 15.5786 4.92172 14.8284 4.17157C14.0783 3.42143 13.0609 3 12 3ZM12 14C8.996 14 3 15.508 3 18.5V20C3 20.552 3.448 21 4 21H20C20.552 21 21 20.552 21 20V18.5C21 15.508 15.004 14 12 14Z" fill="#C4C4C4"/>
</svg>
