<svg width="205" height="297" viewBox="0 0 205 297" fill="none" xmlns="http://www.w3.org/2000/svg">
<ellipse cx="102.5" cy="72.2273" rx="34.125" ry="37.2273" fill="#0275D8" fill-opacity="0.93"/>
<ellipse cx="102.5" cy="196.317" rx="45.5" ry="66.1818" fill="#D82222"/>
<path d="M204.5 148.5C204.5 189.419 193.051 226.442 174.567 253.221C156.081 280.003 130.593 296.5 102.5 296.5C74.4065 296.5 48.9188 280.003 30.433 253.221C11.9488 226.442 0.5 189.419 0.5 148.5C0.5 107.581 11.9488 70.5583 30.433 43.7787C48.9188 16.997 74.4065 0.5 102.5 0.5C130.593 0.5 156.081 16.997 174.567 43.7787C193.051 70.5583 204.5 107.581 204.5 148.5Z" stroke="#C4C4C4"/>
</svg>
